<?xml version="1.0" encoding="UTF-8" standalone="no"?>
<!-- Generator: Adobe Illustrator 13.0.0, SVG Export Plug-In . SVG Version: 6.00 Build 14948)  -->

<svg
   xmlns:dc="http://purl.org/dc/elements/1.1/"
   xmlns:cc="http://creativecommons.org/ns#"
   xmlns:rdf="http://www.w3.org/1999/02/22-rdf-syntax-ns#"
   xmlns:svg="http://www.w3.org/2000/svg"
   xmlns="http://www.w3.org/2000/svg"
   xmlns:xlink="http://www.w3.org/1999/xlink"
   xmlns:sodipodi="http://sodipodi.sourceforge.net/DTD/sodipodi-0.dtd"
   xmlns:inkscape="http://www.inkscape.org/namespaces/inkscape"
   version="1.2"
   id="_x38__1_"
   x="0px"
   y="0px"
   width="799.9px"
   height="319.96px"
   viewBox="0 0 799.9 319.96"
   xml:space="preserve"
   inkscape:version="0.91 r13725"
   sodipodi:docname="citratextlogo.svg"><metadata
     id="metadata4147"><rdf:RDF><cc:Work
         rdf:about=""><dc:format>image/svg+xml</dc:format><dc:type
           rdf:resource="http://purl.org/dc/dcmitype/StillImage" /></cc:Work></rdf:RDF></metadata><defs
     id="defs4145"><linearGradient
       inkscape:collect="always"
       id="linearGradient4149"><stop
         style="stop-color:#ffc304;stop-opacity:1"
         offset="0"
         id="stop4151" /><stop
         style="stop-color:#ff8d03;stop-opacity:1"
         offset="1"
         id="stop4153" /></linearGradient><radialGradient
       inkscape:collect="always"
       xlink:href="#linearGradient4149"
       id="radialGradient4155"
       cx="400.1535"
       cy="149.50101"
       fx="400.1535"
       fy="149.50101"
       r="376.7555"
       gradientTransform="matrix(1.0621051,0,0,0.92031576,-24.851603,11.912869)"
       gradientUnits="userSpaceOnUse" /></defs><sodipodi:namedview
     pagecolor="#ffffff"
     bordercolor="#666666"
     borderopacity="1"
     objecttolerance="10"
     gridtolerance="10"
     guidetolerance="10"
     inkscape:pageopacity="0"
     inkscape:pageshadow="2"
     inkscape:window-width="1920"
     inkscape:window-height="1018"
     id="namedview4143"
     showgrid="false"
     inkscape:zoom="1.8377297"
     inkscape:cx="430.47581"
     inkscape:cy="138.21401"
     inkscape:window-x="1592"
     inkscape:window-y="218"
     inkscape:window-maximized="1"
     inkscape:current-layer="_x38__1_" /><g
     id="_x38__down_combined"><path
       fill-rule="evenodd"
       fill="#FFFFFF"
       d="M277.512,73.995v-0.02H266.42v0.021c-7.973,0.019-14.431,6.485-14.433,14.462h-0.018   v203.068h0.02c0.015,7.978,6.485,14.439,14.466,14.439c0.135,0,0.265-0.016,0.399-0.02h10.232c0.134,0.004,0.264,0.02,0.398,0.02   c7.981,0,14.452-6.462,14.466-14.439h0.014V88.458h-0.012C291.95,80.478,285.488,74.01,277.512,73.995z M277.512,13.002v-0.02   H266.42v0.021c-7.973,0.019-14.431,6.485-14.433,14.462h-0.018v31.09h0.02c0.015,7.978,6.485,14.439,14.466,14.439   c0.133,0,0.261-0.016,0.394-0.02h10.238c0.134,0.004,0.264,0.02,0.398,0.02c7.981,0,14.452-6.462,14.466-14.439h0.014v-31.09   h-0.012C291.95,19.486,285.488,13.018,277.512,13.002z M196.88,248.42c0-3.93-1.573-7.485-4.116-10.091l0.015-0.018l-0.153-0.131   c-0.527-0.524-1.093-1.008-1.695-1.447l-7.076-6.042c-0.318-0.301-0.653-0.582-0.998-0.853l-0.161-0.138l-0.006,0.008   c-2.427-1.852-5.451-2.957-8.74-2.957c-3.855,0-7.349,1.518-9.942,3.976l-0.045-0.045c-11.496,9.645-26.316,15.455-42.497,15.455   c-33.147,0-60.6-24.372-65.42-56.174c4.82-31.802,32.273-56.174,65.42-56.174c16.183,0,31.005,5.812,42.503,15.458l0.042-0.041   c2.591,2.444,6.074,3.953,9.917,3.953c3.244,0,6.231-1.074,8.642-2.88l0.025,0.028l8.08-6.956c3.695-2.62,6.109-6.923,6.109-11.797   c0-0.234-0.023-0.463-0.034-0.695V112.25c0.011-0.23,0.034-0.459,0.034-0.693c0-4.58-2.134-8.656-5.457-11.307   c-18.656-16.363-43.098-26.292-69.863-26.292c-58.547,0-106.009,47.462-106.009,106.009c0,0.16,0.011,0.317,0.012,0.478v19.042   c-0.001,0.16-0.012,0.318-0.012,0.479c0,58.547,47.462,106.009,106.009,106.009c26.357,0,50.463-9.622,69.008-25.541   c3.842-2.583,6.373-6.959,6.403-11.929h0v-0.006c0-0.027,0.005-0.054,0.005-0.081c0-0.035-0.005-0.068-0.005-0.103v-19.792   C196.875,248.489,196.88,248.456,196.88,248.42z M784.84,179.979l-0.025,0.003v-0.015c0-50.891-46.393-106.009-106.111-106.009   c-58.547,0-106.009,47.462-106.009,106.009c0,0.213,0.015,0.423,0.016,0.635v18.728c-0.001,0.213-0.016,0.423-0.016,0.636   c0,58.547,47.462,106.009,106.009,106.009c25.03,0,48.047-8.68,66.204-23.187v8.738h0.02c0.015,7.978,6.485,14.439,14.466,14.439   c0.135,0,0.266-0.016,0.399-0.02h10.232c0.134,0.004,0.264,0.02,0.398,0.02c7.98,0,14.451-6.462,14.466-14.439h0.014v-105.58   L784.84,179.979z M678.709,246.138c-33.146,0-60.6-24.372-65.42-56.174c4.82-31.802,32.273-56.174,65.42-56.174   c33.147,0,60.601,24.373,65.421,56.174C739.31,221.766,711.856,246.138,678.709,246.138z M418.479,73.993   c-0.006,0-0.011,0.001-0.016,0.001v-0.019H399.95v-46.51h-0.012c-0.002-7.979-6.464-14.447-14.439-14.463v-0.02h-11.092v0.021   c-7.973,0.019-14.431,6.485-14.433,14.462h-0.019v46.51h-17.576v0.021c-7.957,0.025-14.401,6.473-14.419,14.431h-0.001v0.02   c0,0.005-0.001,0.01-0.001,0.015s0.001,0.01,0.001,0.016v11c0,0.005-0.001,0.01-0.001,0.015s0.001,0.01,0.001,0.016v8.937   c0,0.005-0.001,0.01-0.001,0.015s0.001,0.01,0.001,0.016v11c0,0.005-0.001,0.01-0.001,0.015s0.001,0.01,0.001,0.016v0.013h0.001   c0.015,7.961,6.46,14.412,14.419,14.437v0.015h17.576v157.558h0.02c0.015,7.978,6.486,14.439,14.466,14.439   c0.134,0,0.265-0.016,0.399-0.02h10.232c0.134,0.004,0.264,0.02,0.398,0.02c7.981,0,14.451-6.462,14.466-14.439h0.014V133.968   h18.514v-0.013c0.005,0,0.01,0.001,0.016,0.001c7.98,0,14.45-6.462,14.466-14.44h0.001v-31.09h-0.001   C432.927,80.452,426.458,73.993,418.479,73.993z M553.557,88.852c0-7.99-6.477-14.468-14.467-14.468   c-0.833,0-1.645,0.086-2.438,0.222c-42.563,6.147-75.312,42.62-75.626,86.813l0.056,0.03h-0.139v127.078h0.02   c0.015,7.978,6.485,14.439,14.466,14.439c0.135,0,0.266-0.016,0.399-0.02h10.232c0.134,0.004,0.264,0.02,0.398,0.02   c7.981,0,14.451-6.462,14.466-14.439h0.014V179.292c0.973-17.324,11.015-32.223,25.468-40.009   c6.302-3.702,16.627-6.424,16.627-6.424l-0.001-0.006c6.072-1.719,10.525-7.288,10.525-13.91c0-0.236-0.021-0.467-0.032-0.699   v-8.673c0.012-0.24,0.032-0.478,0.032-0.721c0-0.239-0.021-0.474-0.032-0.71v-8.472c0.012-0.241,0.032-0.479,0.032-0.723   c0-0.235-0.021-0.466-0.032-0.698v-8.673C553.536,89.333,553.557,89.095,553.557,88.852z"
       id="path4138" /></g><g
     id="citra_text_combined"><path
       fill-rule="evenodd"
       d="M283.971,88.451c0-3.583-2.905-6.487-6.489-6.487c-0.057,0-0.111,0.009-0.169,0.011h-10.691   c-0.057-0.002-0.112-0.011-0.169-0.011c-3.583,0-6.488,2.904-6.488,6.487c0,0.019,0.003,0.036,0.003,0.055v182.931   c0,0.019-0.003,0.036-0.003,0.055c0,3.582,2.905,6.487,6.488,6.487c0.146,0,0.287-0.019,0.431-0.028h10.168   c0.144,0.01,0.285,0.028,0.431,0.028c3.583,0,6.489-2.905,6.489-6.487c0-0.038-0.005-0.074-0.006-0.111V88.562   C283.966,88.525,283.971,88.488,283.971,88.451z M283.971,27.458c0-3.583-2.905-6.487-6.489-6.487   c-0.057,0-0.111,0.009-0.169,0.011h-10.691c-0.057-0.002-0.112-0.011-0.169-0.011c-3.583,0-6.488,2.904-6.488,6.487   c0,0.014,0.003,0.027,0.003,0.042v10.977c0,0.015-0.003,0.027-0.003,0.042c0,3.583,2.905,6.488,6.488,6.488   c0.146,0,0.287-0.019,0.431-0.028h10.168c0.144,0.01,0.285,0.028,0.431,0.028c3.583,0,6.489-2.905,6.489-6.488   c0-0.029-0.006-0.057-0.006-0.085V27.543C283.965,27.514,283.971,27.487,283.971,27.458z M187.329,244.194l-0.041-0.034   c-0.416-0.478-0.9-0.892-1.439-1.229l-7.177-6.129c-0.342-0.365-0.721-0.694-1.139-0.973l-0.288-0.245l-0.04,0.046   c-0.96-0.562-2.074-0.889-3.267-0.889c-1.637,0-3.127,0.61-4.269,1.61h0c-12.966,11.096-29.801,17.8-48.205,17.8   c-40.971,0-74.185-33.214-74.185-74.186c0-40.971,33.214-74.185,74.185-74.185c18.378,0,35.192,6.688,48.151,17.755   c1.147,1.023,2.655,1.651,4.313,1.651c1.191,0,2.303-0.326,3.263-0.887l0.09,0.104l8.735-7.52c0.367-0.255,0.705-0.548,1.012-0.871   l0.331-0.285l-0.035-0.041c0.931-1.123,1.491-2.564,1.491-4.136c0-1.918-0.838-3.638-2.163-4.825l0.008-0.008   c-17.329-15.435-40.165-24.818-65.196-24.818c-54.16,0-98.066,43.906-98.066,98.065c0,54.161,43.906,98.066,98.066,98.066   c24.662,0,47.189-9.112,64.421-24.143c1.806-1.152,3.007-3.169,3.007-5.469c0-1.614-0.593-3.087-1.568-4.223L187.329,244.194z    M776.903,271.38v-85.435l-0.051-4.812c0.005-0.389,0.016-0.777,0.016-1.168c0-47.077-42.917-98.065-98.16-98.065   c-54.161,0-98.065,43.906-98.065,98.065c0,54.161,43.904,98.066,98.065,98.066c29.615,0,56.191-13.127,74.198-33.881v27.284   c0,0.019-0.003,0.036-0.003,0.055c0,3.582,2.904,6.487,6.487,6.487c0.146,0,0.288-0.019,0.432-0.028h10.168   c0.144,0.01,0.285,0.028,0.431,0.028c3.583,0,6.488-2.905,6.488-6.487C776.909,271.454,776.904,271.417,776.903,271.38z    M678.709,254.151c-40.971,0-74.185-33.214-74.185-74.186c0-40.971,33.214-74.185,74.185-74.185s74.185,33.213,74.185,74.185   C752.894,220.937,719.68,254.151,678.709,254.151z M539.098,82.362c-0.423,0-0.836,0.044-1.236,0.121l-0.002-0.012   c-38.748,5.567-68.563,38.759-68.863,78.978h-0.055v106.988c0,0.019-0.003,0.035-0.003,0.054c0,3.583,2.905,6.487,6.487,6.487   c0.146,0,0.288-0.019,0.432-0.028h10.168c0.144,0.01,0.285,0.028,0.431,0.028c3.583,0,6.488-2.904,6.488-6.487   c0-0.037-0.005-0.073-0.006-0.11V161.449h-0.017l0.033-0.092c0.341-27.924,20.941-50.97,47.792-55.099l-0.123-1.016   c2.724-0.658,4.773-3.029,4.944-5.911h0.02V88.426h-0.024C545.345,85.042,542.538,82.362,539.098,82.362z M424.958,88.458   c0-3.583-2.904-6.487-6.487-6.487c-0.019,0-0.036,0.003-0.055,0.003h-26.465V27.568c0.001-0.037,0.006-0.072,0.006-0.109   c0-3.583-2.905-6.487-6.488-6.487c-0.057,0-0.111,0.009-0.169,0.011h-10.692c-0.057-0.002-0.111-0.011-0.168-0.011   c-3.583,0-6.488,2.904-6.488,6.487c0,0.019,0.003,0.036,0.003,0.055v54.461h-25.482c-0.019,0-0.036-0.003-0.055-0.003   c-3.583,0-6.488,2.905-6.488,6.487c0,0.146,0.019,0.288,0.028,0.432v10.168c-0.01,0.144-0.028,0.285-0.028,0.431   c0,3.583,2.905,6.488,6.488,6.488c0.037,0,0.073-0.005,0.11-0.006h25.426v165.465c0,0.019-0.003,0.036-0.003,0.055   c0,3.582,2.905,6.487,6.488,6.487c0.146,0,0.288-0.019,0.431-0.028h10.168c0.144,0.01,0.285,0.028,0.431,0.028   c3.583,0,6.488-2.905,6.488-6.487c0-0.037-0.005-0.073-0.006-0.11V105.971h26.409c0.037,0.001,0.073,0.006,0.11,0.006   c3.583,0,6.487-2.905,6.487-6.488c0-0.057-0.01-0.111-0.011-0.168V88.627C424.948,88.571,424.958,88.516,424.958,88.458z"
       id="path4141"
       style="fill-opacity:1;fill:url(#radialGradient4155)" /></g></svg>